<?xml version="1.0" encoding="UTF-8"?>
<svg id="Capa_2" data-name="Capa 2" xmlns="http://www.w3.org/2000/svg" viewBox="0 0 467.33 143.91">
  <defs>
    <style>
      .cls-1 {
        fill: #f49800;
      }

      .cls-2 {
        fill: #201f41;
      }
    </style>
  </defs>
  <g id="Capa_1-2" data-name="Capa 1">
    <g>
      <path class="cls-2" d="M103.88,103.12c2.57-2.48,3.92-5.72,3.92-9.36v-55.07c0-3.57-1.34-6.8-3.86-9.36-2.49-2.61-5.75-3.98-9.41-3.98h-.12c-3.59,0-6.85,1.36-9.42,3.92-2.57,2.57-3.92,5.82-3.92,9.42v55.07c0,3.67,1.38,6.93,3.98,9.42,2.56,2.53,5.79,3.86,9.36,3.86h.12c3.64,0,6.87-1.36,9.36-3.92Z"/>
      <path class="cls-2" d="M116.08,77.9c-3.37,3.39-5.15,7.43-5.15,11.67,0,2.34.53,4.75,1.58,7.14,2.83,6.65,8.32,10.32,15.46,10.32h39.56c3.59,0,6.83-1.34,9.36-3.86,2.57-2.57,3.92-5.82,3.92-9.42v-.12c0-3.59-1.36-6.85-3.92-9.42-2.53-2.53-5.76-3.86-9.36-3.86l-16.8-.03c7.41-7.78,15.62-16.39,24.62-25.84,3.38-3.35,5.16-7.39,5.16-11.68,0-2.35-.53-4.76-1.58-7.16-2.88-6.64-8.45-10.3-15.7-10.3h-36.59c-3.66,0-6.94,1.38-9.48,3.98-2.49,2.56-3.8,5.77-3.8,9.3v.18c0,3.52,1.32,6.74,3.8,9.3,2.53,2.61,5.81,3.98,9.48,3.98h14.08c-2.03,2.13-4.24,4.45-6.64,6.97-7.95,8.34-14,14.68-18,18.85Z"/>
      <path class="cls-2" d="M206.81,29.33c-2.49-2.61-5.75-3.98-9.41-3.98h-.12c-3.59,0-6.85,1.36-9.42,3.92-2.57,2.57-3.92,5.82-3.92,9.42v55.07c0,3.67,1.38,6.93,3.98,9.42,2.56,2.53,5.79,3.86,9.36,3.86h.12c3.64,0,6.87-1.36,9.36-3.92,2.57-2.48,3.92-5.72,3.92-9.36v-55.07c0-3.57-1.34-6.8-3.86-9.36Z"/>
      <path class="cls-2" d="M317.24,25.35c-3.15,0-5.99.25-8.54.76v-12.33c0-3.6-1.36-6.86-3.93-9.43-.02-.02-.04-.04-.06-.06-2.56-2.49-5.78-3.81-9.31-3.81h-.18c-3.53,0-6.74,1.32-9.31,3.81-.02.02-.04.04-.06.06-2.57,2.57-3.93,5.83-3.93,9.43v80.08c0,3.68,1.38,6.93,3.99,9.43,2.56,2.53,5.78,3.87,9.31,3.87h.18c3.53,0,6.75-1.34,9.31-3.87,2.61-2.49,3.99-5.75,3.99-9.43v-33.18c0-2.42.78-4.35,2.46-6.06,1.7-1.7,3.64-2.49,6.08-2.49s4.32.79,6.03,2.49c1.67,1.71,2.46,3.63,2.46,6.06v33.18c0,3.68,1.38,6.93,3.99,9.43,2.56,2.53,5.8,3.87,9.37,3.87h.12c3.64,0,6.88-1.36,9.37-3.93,2.57-2.49,3.93-5.72,3.93-9.37v-33.18c0-9.69-3.48-18.08-10.36-24.96-6.88-6.87-15.25-10.36-24.9-10.36Z"/>
      <path class="cls-2" d="M369.11,25.35h-.12c-3.6,0-6.86,1.36-9.43,3.93-2.57,2.57-3.93,5.83-3.93,9.43v55.14c0,3.68,1.38,6.93,3.99,9.43,2.56,2.53,5.8,3.87,9.37,3.87h.12c3.64,0,6.88-1.36,9.37-3.93,2.57-2.49,3.93-5.72,3.93-9.37v-55.14c0-3.57-1.34-6.81-3.87-9.37-2.5-2.61-5.75-3.99-9.43-3.99Z"/>
      <path class="cls-1" d="M426.43,52c-3.97,0-7.26,1.33-10.04,4.08-2.74,2.78-4.08,6.07-4.08,10.04s1.3,7.17,4.09,10c2.82,2.81,6.01,4.13,10.03,4.13s7.16-1.32,9.98-4.14c2.82-2.82,4.14-6,4.14-9.98s-1.32-7.22-4.14-10.05c-2.78-2.78-5.95-4.08-9.98-4.08Z"/>
      <path class="cls-2" d="M455.34,37.34c-7.96-7.96-17.69-12-28.9-12s-20.91,4.01-28.83,11.92c-7.96,7.88-12.02,17.58-12.07,28.83,0,0,0,.02,0,.02v58.62c0,3.56,1.36,6.8,3.93,9.37s5.81,3.93,9.37,3.93h.18c3.56,0,6.8-1.36,9.37-3.93,2.57-2.57,3.93-5.81,3.93-9.37v-19.62c4.1,1.34,8.82,2.02,14.12,2.02,11.22,0,20.94-4.04,28.9-12,7.96-7.96,12-17.68,12-28.9s-4.04-20.94-12-28.9ZM412.31,66.12c0-3.97,1.33-7.26,4.08-10.04,2.78-2.74,6.07-4.08,10.04-4.08s7.2,1.3,9.98,4.08c2.83,2.83,4.14,6.02,4.14,10.05s-1.32,7.16-4.14,9.98c-2.82,2.82-6,4.14-9.98,4.14s-7.21-1.31-10.03-4.13c-2.79-2.82-4.09-6-4.09-10Z"/>
      <path class="cls-2" d="M271.61,54.38s0,0-.01,0c-3.6-3.42-8.66-6.02-15.44-7.96-.04-.01-.09-.02-.13-.04-8.02-2.12-10.05-2.85-10.49-3.03-.13-.07-.23-.13-.3-.18,0-.18,0-.22.12-.35.02-.02.03-.03.04-.04.03,0,.1-.02.25-.02h13.77c4.18,0,7.97-1.56,10.96-4.53,3.05-2.92,4.67-6.73,4.67-11.03v-.14c0-4.21-1.59-8.03-4.6-11.03-3.01-3.01-6.82-4.6-11.03-4.6h-13.06c-8.7,0-16.25,3.15-22.46,9.35-6.16,6.16-9.28,13.69-9.28,22.39s2.69,16.06,7.98,21.23c3.61,3.54,8.67,6.23,15.47,8.24.03,0,.05.02.08.02,7.26,2.04,9.82,2.83,10.71,3.12-.03,0-.11.02-.24.02h-19.23c-4.16,0-7.96,1.59-10.96,4.6-3.01,3.01-4.6,6.82-4.6,11.03v.14c0,4.3,1.61,8.11,4.67,11.03,3,2.96,6.76,4.53,10.89,4.53h18.52c8.68,0,16.23-3.11,22.44-9.26.02-.02.03-.03.05-.05,6.14-6.2,9.26-13.75,9.26-22.44s-2.71-15.93-8.06-21.02Z"/>
      <path class="cls-1" d="M38.89,54.95c-3.82,0-6.85,1.25-9.54,3.92-2.65,2.69-3.89,5.71-3.89,9.5s1.27,6.9,3.88,9.55c2.65,2.61,5.77,3.88,9.55,3.88s6.85-1.23,9.49-3.88c2.69-2.69,3.94-5.72,3.94-9.55s-1.25-6.81-3.94-9.49c-2.68-2.68-5.7-3.94-9.49-3.94Z"/>
      <path class="cls-2" d="M66.37,40.78c-7.57-7.57-16.82-11.41-27.48-11.41-5.04,0-9.53.64-13.43,1.92V12.64c0-3.38-1.29-6.46-3.74-8.91-2.44-2.44-5.52-3.74-8.91-3.74h-.17c-3.38,0-6.46,1.29-8.91,3.74S0,9.26,0,12.64v55.73s0,.02,0,.02c.04,10.7,3.91,19.92,11.48,27.41,7.53,7.52,16.75,11.34,27.41,11.34s19.91-3.84,27.48-11.41c7.57-7.57,11.41-16.82,11.41-27.48s-3.84-19.91-11.41-27.48ZM48.38,77.93c-2.65,2.65-5.66,3.88-9.49,3.88s-6.9-1.27-9.55-3.88c-2.61-2.65-3.88-5.77-3.88-9.55s1.24-6.82,3.89-9.5c2.68-2.68,5.71-3.92,9.54-3.92s6.81,1.25,9.49,3.94c2.69,2.69,3.94,5.7,3.94,9.49s-1.25,6.86-3.94,9.55Z"/>
      <path class="cls-2" d="M173.81,138.07l-1.61-5.52h-6.49l-1.58,5.52h-1.64l5.66-18.58h1.66l5.68,18.58h-1.69ZM166.09,131.2h5.71l-2.87-9.97-2.84,9.97Z"/>
      <path class="cls-2" d="M178.26,138.07v-18.58h1.58v18.58h-1.58Z"/>
      <path class="cls-2" d="M190.11,138.07v-18.58h1.58v17.16h7.35v1.42h-8.93Z"/>
      <path class="cls-2" d="M205.82,138.41c-1.64,0-2.9-.61-3.77-1.82s-1.3-2.98-1.3-5.28.43-4.04,1.3-5.27,2.12-1.84,3.77-1.84,2.9.61,3.77,1.84c.87,1.22,1.3,2.98,1.3,5.27s-.43,4.07-1.3,5.28c-.87,1.22-2.12,1.82-3.77,1.82ZM205.82,137.05c1.18,0,2.06-.47,2.64-1.41s.87-2.38.87-4.33c0-3.83-1.17-5.74-3.51-5.74s-3.51,1.91-3.51,5.74c0,1.95.29,3.39.87,4.33.58.94,1.46,1.41,2.64,1.41Z"/>
      <path class="cls-2" d="M221.51,136.27c-1.05,1.04-2.21,1.56-3.46,1.56-1.34,0-2.42-.61-3.24-1.84-.82-1.22-1.23-2.84-1.23-4.84,0-1.43.19-2.67.56-3.73.38-1.05.9-1.85,1.58-2.4.68-.55,1.47-.82,2.39-.82,1.16,0,2.33.5,3.51,1.5l.13-1.13h1.29v13.11c0,4.15-1.67,6.22-5.01,6.22-1.29,0-2.49-.32-3.59-.96v-1.26c1.2.57,2.36.86,3.49.86,1.25,0,2.16-.38,2.73-1.14s.86-2,.86-3.71v-1.42ZM218.45,136.46c1,0,2.02-.47,3.06-1.42v-8.18c-1.13-.86-2.16-1.29-3.11-1.29-1.07,0-1.89.47-2.44,1.41-.55.94-.83,2.32-.83,4.14,0,1.68.29,2.99.87,3.93.58.94,1.4,1.41,2.45,1.41Z"/>
      <path class="cls-2" d="M227.89,121.55c-.32,0-.57-.1-.75-.29-.18-.2-.27-.46-.27-.8s.09-.61.27-.8c.18-.2.43-.29.75-.29s.58.09.76.28.28.46.28.82-.09.63-.28.82c-.19.19-.44.28-.76.28ZM227.14,138.07v-13.49h1.53v13.49h-1.53Z"/>
      <path class="cls-2" d="M238,134.58c0-.52-.14-.96-.43-1.33-.29-.37-.73-.69-1.34-.98l-1.8-.86c-.86-.41-1.48-.9-1.88-1.46-.39-.56-.59-1.24-.59-2.02,0-1.09.35-1.98,1.06-2.68s1.6-1.05,2.69-1.05,2.13.27,3.11.8v1.26c-1.04-.48-2.05-.72-3.03-.72-.75,0-1.34.21-1.77.63-.43.42-.64.99-.64,1.7,0,.52.14.96.43,1.33s.79.72,1.5,1.06l1.8.86c.82.39,1.41.86,1.77,1.39.36.54.54,1.2.54,1.98,0,1.22-.36,2.17-1.07,2.87s-1.71,1.05-2.98,1.05-2.45-.32-3.54-.96v-1.26c.66.3,1.27.53,1.82.67.55.14,1.12.21,1.69.21.84,0,1.49-.22,1.96-.66.46-.44.7-1.05.7-1.84Z"/>
      <path class="cls-2" d="M247.84,137.77c-.66.29-1.4.43-2.23.43-.97,0-1.68-.27-2.13-.8-.46-.54-.68-1.38-.68-2.52v-8.96h-2.09v-1.1l2.15-.21.24-3.94h1.23v3.91h3.35v1.34h-3.35v8.82c0,.73.14,1.27.42,1.61s.72.51,1.33.51c.57,0,1.16-.12,1.77-.35v1.26Z"/>
      <path class="cls-2" d="M251.35,121.55c-.32,0-.57-.1-.75-.29-.18-.2-.27-.46-.27-.8s.09-.61.27-.8c.18-.2.43-.29.75-.29s.58.09.76.28.28.46.28.82-.09.63-.28.82c-.19.19-.44.28-.76.28ZM250.6,138.07v-13.49h1.53v13.49h-1.53Z"/>
      <path class="cls-2" d="M263.52,137.56c-.82.5-1.8.75-2.92.75-1.68,0-2.94-.59-3.78-1.77s-1.26-2.92-1.26-5.23.44-4.03,1.33-5.21,2.18-1.78,3.87-1.78c.93,0,1.81.21,2.63.64v1.26c-.88-.36-1.68-.54-2.41-.54-1.32,0-2.29.45-2.91,1.34-.62.89-.92,2.27-.92,4.13v.32c0,1.86.31,3.24.92,4.13.62.89,1.56,1.34,2.83,1.34.82,0,1.7-.21,2.63-.64v1.26Z"/>
      <path class="cls-2" d="M271.73,134.58c0-.52-.14-.96-.43-1.33-.29-.37-.73-.69-1.34-.98l-1.8-.86c-.86-.41-1.48-.9-1.88-1.46-.39-.56-.59-1.24-.59-2.02,0-1.09.35-1.98,1.06-2.68s1.6-1.05,2.69-1.05,2.13.27,3.11.8v1.26c-1.04-.48-2.05-.72-3.03-.72-.75,0-1.34.21-1.77.63-.43.42-.64.99-.64,1.7,0,.52.14.96.43,1.33s.79.72,1.5,1.06l1.8.86c.82.39,1.41.86,1.77,1.39.36.54.54,1.2.54,1.98,0,1.22-.36,2.17-1.07,2.87s-1.71,1.05-2.98,1.05-2.45-.32-3.54-.96v-1.26c.66.3,1.27.53,1.82.67.55.14,1.12.21,1.69.21.84,0,1.49-.22,1.96-.66.46-.44.7-1.05.7-1.84Z"/>
      <path class="cls-2" d="M284.38,128.71c-2.13-1.04-3.19-2.59-3.19-4.67,0-1.48.44-2.69,1.33-3.61.88-.92,2.04-1.38,3.47-1.38,1.34,0,2.65.33,3.94.99v1.37c-1.25-.59-2.53-.88-3.83-.88-.98,0-1.78.31-2.39.94-.61.63-.91,1.45-.91,2.47,0,.77.2,1.42.6,1.97.4.54,1.02,1.02,1.86,1.43l2.52,1.23c2,.98,3,2.54,3,4.67,0,1.59-.47,2.86-1.42,3.82-.95.96-2.21,1.43-3.78,1.43-.79,0-1.55-.09-2.29-.28s-1.41-.46-2-.82v-1.37c1.43.66,2.85.99,4.26.99,1.11,0,1.99-.33,2.64-.99.65-.66.98-1.55.98-2.68,0-1.52-.76-2.65-2.28-3.41l-2.52-1.23Z"/>
      <path class="cls-2" d="M298.62,138.41c-1.64,0-2.9-.61-3.77-1.82s-1.3-2.98-1.3-5.28.43-4.04,1.3-5.27,2.12-1.84,3.77-1.84,2.9.61,3.77,1.84c.87,1.22,1.3,2.98,1.3,5.27s-.43,4.07-1.3,5.28c-.87,1.22-2.12,1.82-3.77,1.82ZM298.62,137.05c1.18,0,2.06-.47,2.64-1.41s.87-2.38.87-4.33c0-3.83-1.17-5.74-3.51-5.74s-3.51,1.91-3.51,5.74c0,1.95.29,3.39.87,4.33.58.94,1.46,1.41,2.64,1.41Z"/>
      <path class="cls-2" d="M310.28,137.93c-.39.14-.81.21-1.26.21-.64,0-1.14-.21-1.47-.62-.34-.41-.51-1.02-.51-1.82v-17.48h1.53v17.4c0,.43.07.73.21.91.14.18.38.27.72.27.25,0,.51-.03.78-.08v1.21Z"/>
      <path class="cls-2" d="M320.74,138.07l-.13-1.37c-1.41,1.14-2.82,1.72-4.24,1.72-1.04,0-1.82-.35-2.36-1.05s-.8-1.71-.8-3.03v-9.76h1.53v9.14c0,1.16.17,2.01.52,2.53s.92.79,1.7.79c.52,0,1.09-.13,1.7-.39.62-.26,1.24-.62,1.86-1.09v-10.99h1.53v13.49h-1.31Z"/>
      <path class="cls-2" d="M331.68,137.77c-.66.29-1.4.43-2.23.43-.97,0-1.68-.27-2.13-.8-.46-.54-.68-1.38-.68-2.52v-8.96h-2.09v-1.1l2.15-.21.24-3.94h1.23v3.91h3.35v1.34h-3.35v8.82c0,.73.14,1.27.42,1.61s.72.51,1.33.51c.57,0,1.16-.12,1.77-.35v1.26Z"/>
      <path class="cls-2" d="M335.19,121.55c-.32,0-.57-.1-.75-.29-.18-.2-.27-.46-.27-.8s.09-.61.27-.8c.18-.2.43-.29.75-.29s.58.09.76.28.28.46.28.82-.09.63-.28.82c-.19.19-.44.28-.76.28ZM334.44,138.07v-13.49h1.53v13.49h-1.53Z"/>
      <path class="cls-2" d="M344.47,138.41c-1.64,0-2.9-.61-3.77-1.82s-1.3-2.98-1.3-5.28.43-4.04,1.3-5.27,2.12-1.84,3.77-1.84,2.9.61,3.77,1.84c.87,1.22,1.3,2.98,1.3,5.27s-.43,4.07-1.3,5.28c-.87,1.22-2.12,1.82-3.77,1.82ZM344.47,137.05c1.18,0,2.06-.47,2.64-1.41s.87-2.38.87-4.33c0-3.83-1.17-5.74-3.51-5.74s-3.51,1.91-3.51,5.74c0,1.95.29,3.39.87,4.33.58.94,1.46,1.41,2.64,1.41Z"/>
      <path class="cls-2" d="M360.48,138.07v-9.3c0-1.11-.18-1.92-.54-2.43s-.92-.76-1.69-.76c-1.14,0-2.42.5-3.83,1.5v10.99h-1.53v-13.49h1.31l.13,1.37c1.54-1.16,3.03-1.74,4.48-1.74,1.04,0,1.83.34,2.37,1.02.54.68.82,1.67.82,2.98v9.87h-1.53Z"/>
      <path class="cls-2" d="M371.2,134.58c0-.52-.14-.96-.43-1.33-.29-.37-.73-.69-1.34-.98l-1.8-.86c-.86-.41-1.48-.9-1.88-1.46-.39-.56-.59-1.24-.59-2.02,0-1.09.35-1.98,1.06-2.68s1.6-1.05,2.69-1.05,2.13.27,3.11.8v1.26c-1.04-.48-2.05-.72-3.03-.72-.75,0-1.34.21-1.77.63-.43.42-.64.99-.64,1.7,0,.52.14.96.43,1.33s.79.72,1.5,1.06l1.8.86c.82.39,1.41.86,1.77,1.39.36.54.54,1.2.54,1.98,0,1.22-.36,2.17-1.07,2.87s-1.71,1.05-2.98,1.05-2.45-.32-3.54-.96v-1.26c.66.3,1.27.53,1.82.67.55.14,1.12.21,1.69.21.84,0,1.49-.22,1.96-.66.46-.44.7-1.05.7-1.84Z"/>
      <g>
        <g>
          <path class="cls-2" d="M450.63,121.81h-.86c-2.1,0-3.86.26-5.22.78-1.39.53-2.5,1.25-3.31,2.14-.81.9-1.37,1.95-1.66,3.11-.28,1.1-.42,2.25-.42,3.43v5.02c0,.47.17.9.5,1.23.33.34.75.51,1.22.51s.89-.18,1.22-.51c.33-.33.5-.76.5-1.23v-2.44h6.3v2.45c0,.47.17.89.5,1.22.33.33.75.51,1.22.51s.89-.18,1.22-.51c.33-.33.5-.75.5-1.22v-12.76c0-.46-.17-.88-.5-1.22-.33-.34-.75-.52-1.23-.52ZM448.91,125.26v5.15h-6.3c.05-1.96.6-3.29,1.65-3.97,1.16-.75,2.72-1.15,4.64-1.18Z"/>
          <path class="cls-2" d="M456.77,122.16c-.33-.34-.76-.52-1.23-.52s-.9.18-1.23.53c-.32.34-.49.76-.49,1.22v12.91c0,.47.17.9.5,1.23.33.33.75.51,1.22.51s.89-.18,1.22-.51c.33-.33.51-.76.51-1.23v-12.91c0-.46-.17-.89-.5-1.22Z"/>
        </g>
        <circle class="cls-2" cx="434.27" cy="134.9" r="3.14"/>
      </g>
    </g>
  </g>
</svg>