<svg width="256" height="256" viewBox="0 0 256 256" fill="none" xmlns="http://www.w3.org/2000/svg">
  <path d="M128 66V80M128 108V126M90 77V80.8571M166 77V80.8571M82.1678 126H173.832L217.433 150.722C219.829 152.081 220 155.514 217.729 157.066C200.725 168.706 179.317 175.714 156 175.714C128 175.714 102 165.714 128 165.714C154 165.714 128 175.714 100 175.714C76.6828 175.714 55.2749 168.706 38.2709 157.066C36 155.514 36.1706 152.081 38.5671 150.722L82.1678 126ZM82.1678 126L49.006 141.229C48.0673 141.661 47.962 142.922 48.8184 143.504C63.8569 153.722 81.2985 160 100 160C128 160 154 150 128 150C102 150 128 160 156 160C174.701 160 192.143 153.722 207.182 143.504C212.038 142.922 207.933 141.661 206.994 141.229L173.832 126H82.1678ZM78 80V126M178 80V126M78 80H178" stroke="#2563EB" stroke-width="8" stroke-linecap="round" stroke-linejoin="round"/>
</svg>
